<?xml version="1.0" encoding="UTF-8"?>
<svg version="1.1" xmlns="http://www.w3.org/2000/svg" width="445" height="132">
<path d="M0 0 C2.875 1.1875 2.875 1.1875 5 3 C5.763125 3.639375 6.52625 4.27875 7.3125 4.9375 C9.9871348 9.79146686 9.73253009 14.58660262 9 20 C7.80453931 23.18992827 6.15307349 25.27107469 3.2265625 27.12109375 C-1.32387537 28.91731922 -6.21308163 28.6271631 -11 28 C-14.50346972 26.38198536 -16.40405549 24.00227032 -18.375 20.6875 C-19.55078929 15.63160606 -19.55418786 11.60098714 -17.875 6.75 C-13.24667258 -0.03821354 -7.74162442 -1.0633387 0 0 Z M-3 4 C-3 5.98 -3 7.96 -3 10 C-1.35 9.34 0.3 8.68 2 8 C0.47793991 10.62901288 -0.84365964 12.84365964 -3 15 C-3.24253813 17.21072977 -3.24253813 17.21072977 -3.125 19.625 C-3.09792969 20.85089844 -3.09792969 20.85089844 -3.0703125 22.1015625 C-3.04710937 22.72804688 -3.02390625 23.35453125 -3 24 C0.14158949 23.06601394 1.7325148 22.33205059 3.8125 19.75 C5.21538638 16.50121048 5.43851607 14.50812857 5 11 C3.53342986 7.6037323 2.65829589 6.32149334 -0.6875 4.6875 C-1.8321875 4.3471875 -1.8321875 4.3471875 -3 4 Z M-12 7 C-14.46192771 10.69289156 -14.6852305 13.71313113 -14 18 C-12.1891409 21.03965634 -11.09599977 22.60422231 -7.75 23.8125 C-6.88375 23.9053125 -6.88375 23.9053125 -6 24 C-6.38878998 21.18127263 -6.70810365 20.22804402 -9 18.4375 C-9.66 17.963125 -10.32 17.48875 -11 17 C-11.33 16.01 -11.66 15.02 -12 14 C-10.02 14.66 -8.04 15.32 -6 16 C-6 12.04 -6 8.08 -6 4 C-8.22701538 4 -10.22187697 5.82904093 -12 7 Z " fill="#000000" transform="translate(196,36)"/>
<path d="M0 0 C1.91503906 0.18530273 1.91503906 0.18530273 4 1 C5.28027344 2.76586914 5.28027344 2.76586914 6.359375 5.03515625 C6.71483398 5.76355713 7.07029297 6.49195801 7.43652344 7.24243164 C7.8699707 8.1730542 8.30341797 9.10367676 8.75 10.0625 C10.1525 13.011875 11.555 15.96125 13 19 C16.3 13.06 19.6 7.12 23 1 C24.32 1 25.64 1 27 1 C27 9.91 27 18.82 27 28 C25.68 28 24.36 28 23 28 C22.67 23.05 22.34 18.1 22 13 C19.69 17.62 17.38 22.24 15 27 C11 26 11 26 9.296875 23.49609375 C8.78640625 22.48675781 8.2759375 21.47742188 7.75 20.4375 C7.22921875 19.42558594 6.7084375 18.41367187 6.171875 17.37109375 C5.78515625 16.58863281 5.3984375 15.80617188 5 15 C4.67 18.96 4.34 22.92 4 27 C2.68 27.33 1.36 27.66 0 28 C-1.77449594 26.22550406 -1.13030072 23.64982739 -1.1328125 21.25 C-1.13410156 20.0846875 -1.13539062 18.919375 -1.13671875 17.71875 C-1.13285156 16.4915625 -1.12898438 15.264375 -1.125 14 C-1.12886719 12.7728125 -1.13273437 11.545625 -1.13671875 10.28125 C-1.13542969 9.1159375 -1.13414063 7.950625 -1.1328125 6.75 C-1.13168457 5.67234375 -1.13055664 4.5946875 -1.12939453 3.484375 C-1 1 -1 1 0 0 Z " fill="#000000" transform="translate(20,36)"/>
<path d="M0 0 C1.91503906 0.18530273 1.91503906 0.18530273 4 1 C5.28027344 2.76586914 5.28027344 2.76586914 6.359375 5.03515625 C6.71483398 5.76355713 7.07029297 6.49195801 7.43652344 7.24243164 C7.8699707 8.1730542 8.30341797 9.10367676 8.75 10.0625 C10.1525 13.011875 11.555 15.96125 13 19 C16.3 13.06 19.6 7.12 23 1 C24.32 1 25.64 1 27 1 C27 9.91 27 18.82 27 28 C25.68 28 24.36 28 23 28 C22.67 23.05 22.34 18.1 22 13 C19.69 17.62 17.38 22.24 15 27 C11 26 11 26 9.296875 23.49609375 C8.78640625 22.48675781 8.2759375 21.47742188 7.75 20.4375 C7.22921875 19.42558594 6.7084375 18.41367187 6.171875 17.37109375 C5.78515625 16.58863281 5.3984375 15.80617188 5 15 C4.67 18.96 4.34 22.92 4 27 C2.68 27.33 1.36 27.66 0 28 C-1.77449594 26.22550406 -1.13030072 23.64982739 -1.1328125 21.25 C-1.13410156 20.0846875 -1.13539062 18.919375 -1.13671875 17.71875 C-1.13285156 16.4915625 -1.12898438 15.264375 -1.125 14 C-1.12886719 12.7728125 -1.13273437 11.545625 -1.13671875 10.28125 C-1.13542969 9.1159375 -1.13414063 7.950625 -1.1328125 6.75 C-1.13168457 5.67234375 -1.13055664 4.5946875 -1.12939453 3.484375 C-1 1 -1 1 0 0 Z " fill="#000000" transform="translate(96,36)"/>
<path d="M0 0 C1.91503906 0.18530273 1.91503906 0.18530273 4 1 C5.28027344 2.76586914 5.28027344 2.76586914 6.359375 5.03515625 C6.71483398 5.76355713 7.07029297 6.49195801 7.43652344 7.24243164 C7.8699707 8.1730542 8.30341797 9.10367676 8.75 10.0625 C10.1525 13.011875 11.555 15.96125 13 19 C16.3 13.06 19.6 7.12 23 1 C24.32 1 25.64 1 27 1 C27 9.91 27 18.82 27 28 C25.68 28 24.36 28 23 28 C22.67 23.05 22.34 18.1 22 13 C19.69 17.62 17.38 22.24 15 27 C11 26 11 26 9.296875 23.49609375 C8.78640625 22.48675781 8.2759375 21.47742188 7.75 20.4375 C7.22921875 19.42558594 6.7084375 18.41367187 6.171875 17.37109375 C5.78515625 16.58863281 5.3984375 15.80617188 5 15 C4.67 18.96 4.34 22.92 4 27 C2.68 27.33 1.36 27.66 0 28 C-1.77449594 26.22550406 -1.13030072 23.64982739 -1.1328125 21.25 C-1.13410156 20.0846875 -1.13539062 18.919375 -1.13671875 17.71875 C-1.13285156 16.4915625 -1.12898438 15.264375 -1.125 14 C-1.12886719 12.7728125 -1.13273437 11.545625 -1.13671875 10.28125 C-1.13542969 9.1159375 -1.13414063 7.950625 -1.1328125 6.75 C-1.13168457 5.67234375 -1.13055664 4.5946875 -1.12939453 3.484375 C-1 1 -1 1 0 0 Z " fill="#000000" transform="translate(58,36)"/>
<path d="M0 0 C2.55479133 0.2898936 3.73824385 0.73376622 5.55566406 2.58227539 C6.03745117 3.24735107 6.51923828 3.91242676 7.015625 4.59765625 C7.54414063 5.31630859 8.07265625 6.03496094 8.6171875 6.77539062 C9.15601563 7.53013672 9.69484375 8.28488281 10.25 9.0625 C10.80429688 9.82111328 11.35859375 10.57972656 11.9296875 11.36132812 C13.29607305 13.23421866 14.65222962 15.11369202 16 17 C16.06058594 15.94039062 16.12117188 14.88078125 16.18359375 13.7890625 C16.26800127 12.40102779 16.35264917 11.01300768 16.4375 9.625 C16.47681641 8.92632812 16.51613281 8.22765625 16.55664062 7.5078125 C16.88671875 2.2265625 16.88671875 2.2265625 18 0 C19.32 0.33 20.64 0.66 22 1 C22 9.91 22 18.82 22 28 C16.375 26.875 16.375 26.875 13.88671875 23.40234375 C13.36142578 22.68369141 12.83613281 21.96503906 12.29492188 21.22460938 C11.76447266 20.46986328 11.23402344 19.71511719 10.6875 18.9375 C9.86282227 17.79958008 9.86282227 17.79958008 9.02148438 16.63867188 C7.66852902 14.76806403 6.33258567 12.88517303 5 11 C4.67 16.28 4.34 21.56 4 27 C2.68 27.33 1.36 27.66 0 28 C-1.77449594 26.22550406 -1.13030072 23.64982739 -1.1328125 21.25 C-1.13410156 20.0846875 -1.13539063 18.919375 -1.13671875 17.71875 C-1.13285156 16.4915625 -1.12898437 15.264375 -1.125 14 C-1.12886719 12.7728125 -1.13273438 11.545625 -1.13671875 10.28125 C-1.13542969 9.1159375 -1.13414062 7.950625 -1.1328125 6.75 C-1.13168457 5.67234375 -1.13055664 4.5946875 -1.12939453 3.484375 C-1 1 -1 1 0 0 Z " fill="#000000" transform="translate(215,36)"/>
<path d="M0 0 C2.59240556 0.37703237 3.78508438 0.78161286 5.64746094 2.67407227 C6.17114258 3.38104248 6.69482422 4.0880127 7.234375 4.81640625 C7.80800781 5.58017578 8.38164062 6.34394531 8.97265625 7.13085938 C9.55917969 7.93330078 10.14570313 8.73574219 10.75 9.5625 C11.35199219 10.36880859 11.95398438 11.17511719 12.57421875 12.00585938 C14.05875546 13.9970237 15.53060732 15.99763396 17 18 C17.33 12.39 17.66 6.78 18 1 C19.32 1 20.64 1 22 1 C22 9.91 22 18.82 22 28 C16.375 26.875 16.375 26.875 13.88671875 23.40234375 C13.36142578 22.68369141 12.83613281 21.96503906 12.29492188 21.22460938 C11.76447266 20.46986328 11.23402344 19.71511719 10.6875 18.9375 C9.86282227 17.79958008 9.86282227 17.79958008 9.02148438 16.63867188 C7.66852902 14.76806403 6.33258567 12.88517303 5 11 C4.67 16.61 4.34 22.22 4 28 C2.68 28 1.36 28 0 28 C-1.29361994 25.41276011 -1.12948949 23.51886997 -1.1328125 20.625 C-1.13410156 19.55765625 -1.13539063 18.4903125 -1.13671875 17.390625 C-1.13285156 16.27171875 -1.12898438 15.1528125 -1.125 14 C-1.12886719 12.88109375 -1.13273437 11.7621875 -1.13671875 10.609375 C-1.13542969 9.54203125 -1.13414062 8.4746875 -1.1328125 7.375 C-1.13168457 6.39273438 -1.13055664 5.41046875 -1.12939453 4.3984375 C-1 2 -1 2 0 0 Z " fill="#000000" transform="translate(372,36)"/>
<path d="M0 0 C2.3046875 1.52734375 2.3046875 1.52734375 4 3 C3.67 4.32 3.34 5.64 3 7 C2.29875 6.67 1.5975 6.34 0.875 6 C-2.42897847 4.8507901 -4.52903112 4.49381704 -8 5 C-10.90580922 7.26007384 -12.59963294 9.02410529 -14 12.4375 C-14 15.96214508 -12.84564944 18.03377769 -11 21 C-7.91111478 23.05925681 -7.29064073 23.2390374 -3.8125 23.125 C-2.554375 23.08375 -1.29625 23.0425 0 23 C0 21.02 0 19.04 0 17 C-1.98 17 -3.96 17 -6 17 C-6 15.68 -6 14.36 -6 13 C-4.52093108 12.97310784 -3.04172517 12.95365379 -1.5625 12.9375 C-0.73878906 12.92589844 0.08492188 12.91429687 0.93359375 12.90234375 C3 13 3 13 4 14 C4.07244053 16.01964199 4.08377188 18.04167124 4.0625 20.0625 C4.05347656 21.16722656 4.04445313 22.27195312 4.03515625 23.41015625 C4.02355469 24.26480469 4.01195312 25.11945312 4 26 C-0.78213636 28.79519238 -5.60497921 28.77294799 -11 28 C-14.95152538 26.04372215 -17.33305252 23.03971956 -19 19 C-19.78168343 13.41654692 -19.28213652 8.70439568 -16 4 C-11.26064161 -0.39257607 -6.23071258 -1.14126914 0 0 Z " fill="#000000" transform="translate(422,36)"/>
<path d="M0 0 C3.0625 2.3125 3.0625 2.3125 5 5 C5 5.99 5 6.98 5 8 C1.62537285 7.45276317 -0.08235 6.9451 -3 5 C-6.14221967 5.31506627 -6.14221967 5.31506627 -9 6 C-8.88059914 7.97725705 -8.88059914 7.97725705 -8 10 C-5.78271679 11.03533079 -5.78271679 11.03533079 -3.125 11.5625 C0.44603407 12.40059983 2.78195706 12.96628965 5 16 C5.86877828 22.84162896 5.86877828 22.84162896 3.125 26.5 C-1.30354165 28.62569999 -5.17321702 28.7912759 -10 28 C-13.125 26.25 -13.125 26.25 -15 24 C-15 22.68 -15 21.36 -15 20 C-13.35 20.33 -11.7 20.66 -10 21 C-10 21.66 -10 22.32 -10 23 C-7.36 23 -4.72 23 -2 23 C-1.34 21.68 -0.68 20.36 0 19 C-2.35602296 16.64397704 -3.74094746 16.45260729 -6.9375 15.6875 C-10.32278707 14.70909333 -11.72494546 14.29077194 -14.1875 11.6875 C-15.22133585 8.26788913 -15.17564714 6.37998553 -14 3 C-10.08557154 -0.66977668 -5.10420844 -1.00607364 0 0 Z " fill="#000000" transform="translate(261,36)"/>
<path d="M0 0 C0.99 0 1.98 0 3 0 C3.02505615 0.55461914 3.0501123 1.10923828 3.07592773 1.68066406 C3.19227927 4.20398843 3.31482754 6.72697536 3.4375 9.25 C3.47681641 10.12269531 3.51613281 10.99539062 3.55664062 11.89453125 C3.59853516 12.73886719 3.64042969 13.58320312 3.68359375 14.453125 C3.72025146 15.22817383 3.75690918 16.00322266 3.79467773 16.80175781 C3.97466143 19.32722445 3.97466143 19.32722445 5 23 C8.63 23 12.26 23 16 23 C16.76914334 19.92342662 17.16965109 17.55594843 17.31640625 14.453125 C17.35830078 13.60878906 17.40019531 12.76445313 17.44335938 11.89453125 C17.48267578 11.02183594 17.52199219 10.14914063 17.5625 9.25 C17.60568359 8.36183594 17.64886719 7.47367188 17.69335938 6.55859375 C17.79913615 4.37254037 17.90122546 2.18637911 18 0 C19.32 0.33 20.64 0.66 22 1 C22.05816623 4.41659491 22.09365195 7.83306205 22.125 11.25 C22.15013672 12.70212891 22.15013672 12.70212891 22.17578125 14.18359375 C22.18222656 15.11816406 22.18867188 16.05273438 22.1953125 17.015625 C22.20578613 17.87446289 22.21625977 18.73330078 22.22705078 19.61816406 C21.97638369 22.2477427 21.44308049 23.79504471 20 26 C15.20642557 28.83701344 11.7060003 29.28860652 6.2109375 28.8125 C2.65453615 27.50555392 1.22180638 26.10127141 -1 23 C-1.63191854 19.23097698 -1.51699597 15.55940912 -1.375 11.75 C-1.36082031 10.73164062 -1.34664063 9.71328125 -1.33203125 8.6640625 C-1.18239796 1.18239796 -1.18239796 1.18239796 0 0 Z " fill="#000000" transform="translate(276,36)"/>
<path d="M0 0 C1.75390625 1.16796875 1.75390625 1.16796875 2.75390625 4.16796875 C2.42390625 4.82796875 2.09390625 5.48796875 1.75390625 6.16796875 C-3.12109375 5.29296875 -3.12109375 5.29296875 -4.24609375 4.16796875 C-7.9462155 4.3774096 -10.53859113 4.71444143 -13.68359375 6.73046875 C-15.50347143 9.56947792 -15.87776561 11.8293672 -15.6953125 15.1953125 C-14.8982014 18.69566992 -13.11582371 20.17163486 -10.24609375 22.16796875 C-6.02834765 22.78305672 -3.06769895 21.9663712 0.75390625 20.16796875 C1.08390625 21.81796875 1.41390625 23.46796875 1.75390625 25.16796875 C-2.81982 27.80260369 -7.08513654 27.82022243 -12.24609375 27.16796875 C-16.07988011 25.35563338 -17.77960393 23.86770348 -20.12109375 20.35546875 C-21.99745769 15.03910424 -21.85848272 11.02260037 -19.55859375 5.91796875 C-15.44599018 -1.42494973 -7.75382899 -2.87228796 0 0 Z " fill="#000000" transform="translate(167.24609375,36.83203125)"/>
<path d="M0 0 C6.93 0 13.86 0 21 0 C21 1.32 21 2.64 21 4 C18.36 4 15.72 4 13 4 C13 11.59 13 19.18 13 27 C11.68 27.33 10.36 27.66 9 28 C8 27 8 27 7.88647461 24.77514648 C7.89171143 23.81680908 7.89694824 22.85847168 7.90234375 21.87109375 C7.90556641 20.83662109 7.90878906 19.80214844 7.91210938 18.73632812 C7.92048828 17.64771484 7.92886719 16.55910156 7.9375 15.4375 C7.94201172 14.34501953 7.94652344 13.25253906 7.95117188 12.12695312 C7.96300174 9.41791505 7.97948457 6.70898401 8 4 C5.03 4 2.06 4 -1 4 C-0.67 2.68 -0.34 1.36 0 0 Z " fill="#000000" transform="translate(328,36)"/>
<path d="M0 0 C0.99 0 1.98 0 3 0 C4.2263757 2.45275141 4.11415314 4.0505781 4.09765625 6.7890625 C4.09282227 8.20058594 4.09282227 8.20058594 4.08789062 9.640625 C4.07951172 10.62546875 4.07113281 11.6103125 4.0625 12.625 C4.05798828 13.61757813 4.05347656 14.61015625 4.04882812 15.6328125 C4.03702145 18.0886016 4.020554 20.54427104 4 23 C4.84304688 22.98839844 5.68609375 22.97679688 6.5546875 22.96484375 C7.65039062 22.95582031 8.74609375 22.94679688 9.875 22.9375 C10.96554687 22.92589844 12.05609375 22.91429688 13.1796875 22.90234375 C16 23 16 23 18 24 C17.67 25.32 17.34 26.64 17 28 C14.18743719 28.02684312 11.37512759 28.04676188 8.5625 28.0625 C7.76005859 28.07087891 6.95761719 28.07925781 6.13085938 28.08789062 C4.08704779 28.0965143 2.04316098 28.0522815 0 28 C-1.77449594 26.22550406 -1.13030072 23.64982739 -1.1328125 21.25 C-1.13410156 20.0846875 -1.13539063 18.919375 -1.13671875 17.71875 C-1.13285156 16.4915625 -1.12898438 15.264375 -1.125 14 C-1.12886719 12.7728125 -1.13273437 11.545625 -1.13671875 10.28125 C-1.13542969 9.1159375 -1.13414062 7.950625 -1.1328125 6.75 C-1.13168457 5.67234375 -1.13055664 4.5946875 -1.12939453 3.484375 C-1 1 -1 1 0 0 Z " fill="#000000" transform="translate(309,36)"/>
<path d="M0 0 C4.95 0 9.9 0 15 0 C13.19572805 3.60854389 11.55275204 5.81311066 8.875 8.75 C7.78832031 9.94882813 7.78832031 9.94882813 6.6796875 11.171875 C6.12539062 11.77515625 5.57109375 12.3784375 5 13 C8.63 13.33 12.26 13.66 16 14 C16.433125 12.618125 16.86625 11.23625 17.3125 9.8125 C18.50032925 6.22638692 19.86847784 3.14653272 22 0 C25 1 25 1 26.60546875 3.87109375 C27.12753906 5.04800781 27.64960938 6.22492188 28.1875 7.4375 C28.71730469 8.61183594 29.24710938 9.78617188 29.79296875 10.99609375 C31 14 31 14 31 16 C30.01 16 29.02 16 28 16 C27.67 14.68 27.34 13.36 27 12 C24.36 12 21.72 12 19 12 C18.67 13.32 18.34 14.64 18 16 C12.06 16 6.12 16 0 16 C1.80427195 12.39145611 3.44724796 10.18688934 6.125 7.25 C7.21167969 6.05117187 7.21167969 6.05117187 8.3203125 4.828125 C8.87460938 4.22484375 9.42890625 3.6215625 10 3 C6.7 2.67 3.4 2.34 0 2 C0 1.34 0 0.68 0 0 Z M22 5 C21.34 6.65 20.68 8.3 20 10 C21.98 10 23.96 10 26 10 C25.34 8.35 24.68 6.7 24 5 C23.34 5 22.68 5 22 5 Z " fill="#000000" transform="translate(226,78)"/>
<path d="M0 0 C2.89357127 2.59679473 3.86089908 4.16539447 4.5 8 C3.84128733 11.95227601 3.13922618 13.45872167 0 16 C-4.5928269 16.87736727 -8.52947982 16.84029724 -12.625 14.5 C-14.56889306 10.96564898 -14.81799989 7.94421729 -14 4 C-10.10003086 -1.24478608 -6.13098205 -1.50585524 0 0 Z M-10.4375 3.625 C-12.29579025 5.96147959 -12.29579025 5.96147959 -11.9375 9.125 C-11.23305313 12.29174932 -11.23305313 12.29174932 -8 14 C-4.87973093 14.32502803 -2.85252465 14.51151479 -0.125 12.875 C1.52854531 10.11909116 1.39365568 8.14924548 1 5 C0 3 0 3 -2 2 C-5.65259739 1.45599613 -7.3433886 1.56225907 -10.4375 3.625 Z " fill="#000000" transform="translate(290,78)"/>
<path d="M0 0 C2.31855545 3.47783317 2.40711562 6.37715509 1.625 10.4375 C0.25 12.9375 0.25 12.9375 -2.375 14.4375 C-5.82750372 15.03968088 -8.92800381 15.09597934 -12.375 14.4375 C-15.51422618 11.89622167 -16.21628733 10.38977601 -16.875 6.4375 C-16.2515914 2.69704841 -15.07822907 1.06563937 -12.375 -1.5625 C-8.1583658 -3.53026263 -3.77250595 -2.48191181 0 0 Z M-12.75 2.9375 C-13.28625 3.7625 -13.8225 4.5875 -14.375 5.4375 C-13.30098892 8.35267292 -12.59689824 10.21560176 -10.375 12.4375 C-6.75850702 12.90921648 -5.00187488 12.85541658 -1.9375 10.8125 C-0.07920975 8.47602041 -0.07920975 8.47602041 -0.4375 5.3125 C-1.14194687 2.14575068 -1.14194687 2.14575068 -4.375 0.4375 C-8.55826348 -0.18553924 -9.77445892 -0.1946485 -12.75 2.9375 Z " fill="#000000" transform="translate(199.375,79.5625)"/>
<path d="M0 0 C4.51586582 1.12896645 5.3357925 2.11402112 8.25 5.5625 C8.95640625 6.38878906 9.6628125 7.21507813 10.390625 8.06640625 C10.92171875 8.70449219 11.4528125 9.34257813 12 10 C12.33 6.7 12.66 3.4 13 0 C13.66 0 14.32 0 15 0 C15 5.28 15 10.56 15 16 C14.01 16 13.02 16 12 16 C9.95703125 13.8125 9.95703125 13.8125 7.8125 11 C7.09707031 10.071875 6.38164062 9.14375 5.64453125 8.1875 C5.10183594 7.465625 4.55914062 6.74375 4 6 C3.67 9.3 3.34 12.6 3 16 C2.01 16 1.02 16 0 16 C0 10.72 0 5.44 0 0 Z " fill="#000000" transform="translate(296,78)"/>
<path d="M0 0 C1.4540625 0.0309375 1.4540625 0.0309375 2.9375 0.0625 C3.73703138 3.34946233 4.03408936 4.77273192 2.9375 8.0625 C4.5875 8.3925 6.2375 8.7225 7.9375 9.0625 C8.2675 11.3725 8.5975 13.6825 8.9375 16.0625 C8.133125 15.876875 7.32875 15.69125 6.5 15.5 C5.654375 15.355625 4.80875 15.21125 3.9375 15.0625 C3.6075 15.3925 3.2775 15.7225 2.9375 16.0625 C-0.5625 16.1875 -0.5625 16.1875 -4.0625 16.0625 C-5.0625 15.0625 -5.0625 15.0625 -5.1875 12.1875 C-5.0625 9.0625 -5.0625 9.0625 -4.0625 6.0625 C-4.0625 5.19625 -4.0625 4.33 -4.0625 3.4375 C-4.0625 -0.17287645 -3.66186241 0.07473189 0 0 Z M-2.0625 2.0625 C-1.7325 3.0525 -1.4025 4.0425 -1.0625 5.0625 C-0.4025 5.0625 0.2575 5.0625 0.9375 5.0625 C0.9375 4.0725 0.9375 3.0825 0.9375 2.0625 C-0.0525 2.0625 -1.0425 2.0625 -2.0625 2.0625 Z M-1.0625 9.0625 C-1.7225 10.3825 -2.3825 11.7025 -3.0625 13.0625 C-1.17070797 13.7439823 -1.17070797 13.7439823 0.9375 14.0625 C1.5975 13.4025 2.2575 12.7425 2.9375 12.0625 C1.6175 11.0725 0.2975 10.0825 -1.0625 9.0625 Z " fill="#000000" transform="translate(75.0625,77.9375)"/>
<path d="M0 0 C6.8359375 -0.1953125 6.8359375 -0.1953125 9 0 C11 2 11 2 11.0625 4.8125 C11.041875 5.864375 11.02125 6.91625 11 8 C11.20625 8.886875 11.4125 9.77375 11.625 10.6875 C12 13 12 13 10 16 C7.6171875 16.29296875 7.6171875 16.29296875 4.875 16.1875 C2.461875 16.0946875 2.461875 16.0946875 0 16 C0 10.72 0 5.44 0 0 Z M2 2 C2 3.32 2 4.64 2 6 C3.98 6 5.96 6 8 6 C8 4.68 8 3.36 8 2 C6.02 2 4.04 2 2 2 Z M2 8 C2 9.98 2 11.96 2 14 C3.98 14 5.96 14 8 14 C8.33 12.68 8.66 11.36 9 10 C6.04622502 7.63019987 6.04622502 7.63019987 2 8 Z " fill="#000000" transform="translate(170,78)"/>
<path d="M0 0 C8.32439678 -0.48257373 8.32439678 -0.48257373 11.1875 1.5625 C12.36353446 5.09060338 11.04544453 7.49468598 10 11 C10.74216399 13.86430119 10.74216399 13.86430119 12 16 C11.01 16 10.02 16 9 16 C6 12.66666667 6 12.66666667 6 10 C5.01 10 4.02 10 3 10 C3 11.98 3 13.96 3 16 C2.01 16 1.02 16 0 16 C0 10.72 0 5.44 0 0 Z M3 2 C3 3.98 3 5.96 3 8 C4.65 7.67 6.3 7.34 8 7 C8.33 5.68 8.66 4.36 9 3 C6.03 2.505 6.03 2.505 3 2 Z " fill="#000000" transform="translate(156,78)"/>
<path d="M0 0 C0.66 0.33 1.32 0.66 2 1 C2 1.66 2 2.32 2 3 C1.07767578 2.93039063 1.07767578 2.93039063 0.13671875 2.859375 C-4.8785191 2.5046281 -4.8785191 2.5046281 -9.1875 4.6875 C-10.26395958 7.04525956 -10.26395958 7.04525956 -9.25 9.6875 C-8.1977169 11.89755147 -8.1977169 11.89755147 -7 13 C-4.66702567 13.04092937 -2.33294775 13.04241723 0 13 C0 12.01 0 11.02 0 10 C-1.65 10 -3.3 10 -5 10 C-5 9.34 -5 8.68 -5 8 C-2.69 8 -0.38 8 2 8 C2 10.31 2 12.62 2 15 C-1.46530209 16.73265104 -5.21107035 16.4643626 -9 16 C-11.5625 14.5 -11.5625 14.5 -13 12 C-13.54192526 9.21621553 -13.57657957 6.78014109 -13 4 C-9.25272287 -1.03944166 -5.88098408 -1.25127321 0 0 Z " fill="#000000" transform="translate(60,78)"/>
<path d="M0 0 C0.99 0 1.98 0 3 0 C3 9.24 3 18.48 3 28 C1.68 28 0.36 28 -1 28 C-1.02886338 23.52084672 -1.04675187 19.04171709 -1.0625 14.5625 C-1.07087891 13.28310547 -1.07925781 12.00371094 -1.08789062 10.68554688 C-1.09111328 9.47060547 -1.09433594 8.25566406 -1.09765625 7.00390625 C-1.10289307 5.87799072 -1.10812988 4.7520752 -1.11352539 3.59204102 C-1 1 -1 1 0 0 Z " fill="#000000" transform="translate(358,36)"/>
<path d="M0 0 C0.99 0 1.98 0 3 0 C5.04296875 2.1875 5.04296875 2.1875 7.1875 5 C7.90292969 5.928125 8.61835938 6.85625 9.35546875 7.8125 C9.89816406 8.534375 10.44085938 9.25625 11 10 C11.33 6.7 11.66 3.4 12 0 C12.66 0 13.32 0 14 0 C14 5.28 14 10.56 14 16 C10.24156337 14.12078169 8.85024645 12.97529385 6.25 9.875 C5.63640625 9.15054688 5.0228125 8.42609375 4.390625 7.6796875 C3.93171875 7.12539062 3.4728125 6.57109375 3 6 C2.67 9.3 2.34 12.6 2 16 C1.34 16 0.68 16 0 16 C0 10.72 0 5.44 0 0 Z " fill="#000000" transform="translate(204,78)"/>
<path d="M0 0 C8.12604043 -0.60642093 8.12604043 -0.60642093 12.0625 2.125 C14 5 14 5 14.625 8 C13.75445216 12.17862962 12.50368509 13.56887157 9 16 C5.87327402 16.41306246 3.17628148 16.23703593 0 16 C0 10.72 0 5.44 0 0 Z M2 2 C2 5.96 2 9.92 2 14 C7.50694157 14.51449576 7.50694157 14.51449576 9.875 12.875 C11.52854531 10.11909116 11.39365568 8.14924548 11 5 C10 3 10 3 8 2 C6.02 2 4.04 2 2 2 Z " fill="#000000" transform="translate(93,78)"/>
<path d="M0 0 C4.29 0 8.58 0 13 0 C13 0.66 13 1.32 13 2 C9.7 2 6.4 2 3 2 C3 3.65 3 5.3 3 7 C5.31 7 7.62 7 10 7 C10 7.66 10 8.32 10 9 C7.69 9 5.38 9 3 9 C3 10.65 3 12.3 3 14 C6.3 14 9.6 14 13 14 C13 14.66 13 15.32 13 16 C8.71 16 4.42 16 0 16 C0 10.72 0 5.44 0 0 Z " fill="#000000" transform="translate(109,78)"/>
<path d="M0 0 C6.8359375 -0.1953125 6.8359375 -0.1953125 9 0 C9.66 0.66 10.32 1.32 11 2 C10.74438677 4.3431213 10.40729228 6.67843403 10 9 C10 11.62113708 10.31292445 13.50935112 11 16 C7.83884224 14.63016497 7.0072908 14.0109362 5 11 C4.01 10.67 3.02 10.34 2 10 C2 11.98 2 13.96 2 16 C1.34 16 0.68 16 0 16 C0 10.72 0 5.44 0 0 Z M2 2 C2 3.98 2 5.96 2 8 C3.98 7.67 5.96 7.34 8 7 C7.67 5.35 7.34 3.7 7 2 C5.35 2 3.7 2 2 2 Z " fill="#000000" transform="translate(350,78)"/>
<path d="M0 0 C0 0.99 0 1.98 0 3 C-2.31 2.67 -4.62 2.34 -7 2 C-7 2.66 -7 3.32 -7 4 C-5.865625 4.474375 -4.73125 4.94875 -3.5625 5.4375 C0 7 0 7 1 8 C1.1875 10.4375 1.1875 10.4375 1 13 C-1 15 -1 15 -2.9453125 15.1953125 C-4.96354167 15.13020833 -6.98177083 15.06510417 -9 15 C-9.66 13.68 -10.32 12.36 -11 11 C-8.36 11.33 -5.72 11.66 -3 12 C-3 11.01 -3 10.02 -3 9 C-4.134375 8.5875 -5.26875 8.175 -6.4375 7.75 C-10 6 -10 6 -11.0625 4 C-11 2 -11 2 -9 -1 C-5.23375329 -2.25541557 -3.62811066 -1.37061958 0 0 Z " fill="#000000" transform="translate(426,79)"/>
<path d="M0 0 C3 1 3 1 4.60546875 3.87109375 C5.12753906 5.04800781 5.64960938 6.22492188 6.1875 7.4375 C6.71730469 8.61183594 7.24710938 9.78617188 7.79296875 10.99609375 C9 14 9 14 9 16 C8.01 16 7.02 16 6 16 C5.67 14.68 5.34 13.36 5 12 C2.36 12 -0.28 12 -3 12 C-3.33 13.32 -3.66 14.64 -4 16 C-4.99 16 -5.98 16 -7 16 C-5.26017005 10.18738629 -3.1889511 5.16830006 0 0 Z M0 5 C-0.66 6.65 -1.32 8.3 -2 10 C-0.02 10 1.96 10 4 10 C3.34 8.35 2.68 6.7 2 5 C1.34 5 0.68 5 0 5 Z " fill="#000000" transform="translate(146,78)"/>
<path d="M0 0 C0 0.99 0 1.98 0 3 C-2.31 2.67 -4.62 2.34 -7 2 C-7 2.66 -7 3.32 -7 4 C-5.865625 4.474375 -4.73125 4.94875 -3.5625 5.4375 C0 7 0 7 1 8 C1.1875 10.4375 1.1875 10.4375 1 13 C-1 15 -1 15 -2.9453125 15.1953125 C-4.96354167 15.13020833 -6.98177083 15.06510417 -9 15 C-9.66 13.68 -10.32 12.36 -11 11 C-8.36 11.33 -5.72 11.66 -3 12 C-3 11.01 -3 10.02 -3 9 C-4.134375 8.5875 -5.26875 8.175 -6.4375 7.75 C-10 6 -10 6 -11.0625 4 C-11 2 -11 2 -9 -1 C-5.23375329 -2.25541557 -3.62811066 -1.37061958 0 0 Z " fill="#000000" transform="translate(44,79)"/>
<path d="M0 0 C0 0.99 0 1.98 0 3 C-2.31 2.67 -4.62 2.34 -7 2 C-7 2.66 -7 3.32 -7 4 C-5.865625 4.474375 -4.73125 4.94875 -3.5625 5.4375 C0 7 0 7 1 8 C1.1875 10.4375 1.1875 10.4375 1 13 C-1 15 -1 15 -2.9453125 15.1953125 C-4.96354167 15.13020833 -6.98177083 15.06510417 -9 15 C-9.66 13.68 -10.32 12.36 -11 11 C-8.03 11.33 -5.06 11.66 -2 12 C-2 10.68 -2 9.36 -2 8 C-3.134375 7.855625 -4.26875 7.71125 -5.4375 7.5625 C-9 7 -9 7 -10 6 C-10.04080783 4.00041636 -10.04254356 1.99954746 -10 0 C-6.22996568 -2.61002376 -4.07631429 -1.66758312 0 0 Z " fill="#000000" transform="translate(331,79)"/>
<path d="M0 0 C0.33 0.99 0.66 1.98 1 3 C0.37351562 2.97679688 -0.25296875 2.95359375 -0.8984375 2.9296875 C-1.71570313 2.91164063 -2.53296875 2.89359375 -3.375 2.875 C-4.59316406 2.84019531 -4.59316406 2.84019531 -5.8359375 2.8046875 C-8.21342243 2.78629949 -8.21342243 2.78629949 -10 5 C-10.41666667 8 -10.41666667 8 -10 11 C-6.91111478 13.05925681 -6.29064073 13.2390374 -2.8125 13.125 C-1.554375 13.08375 -0.29625 13.0425 1 13 C0.67 13.99 0.34 14.98 0 16 C-4.84435994 16.47493725 -7.9563259 16.72418203 -12.0625 13.875 C-14.35974648 10.46618264 -14.75471928 9.02516948 -14 5 C-12.30517999 2.27618212 -11.05855418 0.49399195 -8.125 -0.875 C-5.30681883 -1.04077536 -2.75653783 -0.56383728 0 0 Z " fill="#000000" transform="translate(397,78)"/>
<path d="M0 0 C4.29 0 8.58 0 13 0 C13 0.66 13 1.32 13 2 C9.37 2 5.74 2 2 2 C2 3.65 2 5.3 2 7 C4.64 7 7.28 7 10 7 C10 7.66 10 8.32 10 9 C7.36 9 4.72 9 2 9 C2 10.65 2 12.3 2 14 C5.63 14 9.26 14 13 14 C13 14.66 13 15.32 13 16 C8.71 16 4.42 16 0 16 C0 10.72 0 5.44 0 0 Z " fill="#000000" transform="translate(335,78)"/>
<path d="M0 0 C4.29 0 8.58 0 13 0 C12.67 0.66 12.34 1.32 12 2 C8.7 2 5.4 2 2 2 C2 3.65 2 5.3 2 7 C4.64 7 7.28 7 10 7 C10 7.66 10 8.32 10 9 C7.36 9 4.72 9 2 9 C2 10.65 2 12.3 2 14 C5.3 14 8.6 14 12 14 C12.33 14.66 12.66 15.32 13 16 C8.71 16 4.42 16 0 16 C0 10.72 0 5.44 0 0 Z " fill="#000000" transform="translate(401,78)"/>
<path d="M0 0 C0.33 0.99 0.66 1.98 1 3 C-0.98567708 2.93489583 -2.97135417 2.86979167 -4.95703125 2.8046875 C-7.31359719 2.86745538 -7.31359719 2.86745538 -10 5 C-9.67 7.31 -9.34 9.62 -9 12 C-4.02093741 12.75427297 -4.02093741 12.75427297 1 13 C0.67 13.99 0.34 14.98 0 16 C-8.04761905 16.61904762 -8.04761905 16.61904762 -11.5 14.375 C-13.35921047 11.43125008 -13.9288308 9.48729073 -14 6 C-12.69099157 2.80020161 -11.66131053 1.39321167 -8.6875 -0.375 C-5.48766313 -1.11914811 -3.17645135 -0.73870962 0 0 Z " fill="#000000" transform="translate(137,78)"/>
<path d="M0 0 C3.96 0 7.92 0 12 0 C12 0.66 12 1.32 12 2 C8.7 2 5.4 2 2 2 C2 3.65 2 5.3 2 7 C4.64 7 7.28 7 10 7 C10 7.66 10 8.32 10 9 C7.36 9 4.72 9 2 9 C2 10.65 2 12.3 2 14 C5.3 14 8.6 14 12 14 C12 14.66 12 15.32 12 16 C8.04 16 4.08 16 0 16 C0 10.72 0 5.44 0 0 Z " fill="#000000" transform="translate(19,78)"/>
<path d="M0 0 C0.99 0 1.98 0 3 0 C3.67119549 1.4562545 4.33681807 2.91507867 5 4.375 C5.556875 5.59316406 5.556875 5.59316406 6.125 6.8359375 C7 9 7 9 7 11 C7.66 11 8.32 11 9 11 C9.20496094 10.37351562 9.40992188 9.74703125 9.62109375 9.1015625 C9.89050781 8.28429687 10.15992188 7.46703125 10.4375 6.625 C10.70433594 5.81289062 10.97117187 5.00078125 11.24609375 4.1640625 C12 2 12 2 13 0 C13.99 0 14.98 0 16 0 C14.26017005 5.81261371 12.1889511 10.83169994 9 16 C6 15 6 15 4.39453125 12.12890625 C3.87246094 10.95199219 3.35039062 9.77507812 2.8125 8.5625 C2.28269531 7.38816406 1.75289063 6.21382813 1.20703125 5.00390625 C0 2 0 2 0 0 Z " fill="#000000" transform="translate(361,78)"/>
<path d="M0 0 C4.62 0 9.24 0 14 0 C14 0.66 14 1.32 14 2 C12.02 2 10.04 2 8 2 C8 6.62 8 11.24 8 16 C7.34 16 6.68 16 6 16 C6 11.38 6 6.76 6 2 C4.02 2 2.04 2 0 2 C0 1.34 0 0.68 0 0 Z " fill="#000000" transform="translate(255,78)"/>
<path d="M0 0 C0.99 0 1.98 0 3 0 C3 5.28 3 10.56 3 16 C2.01 16 1.02 16 0 16 C0 10.72 0 5.44 0 0 Z " fill="#000000" transform="translate(378,78)"/>
<path d="M0 0 C0.66 0 1.32 0 2 0 C2 5.28 2 10.56 2 16 C1.34 16 0.68 16 0 16 C0 10.72 0 5.44 0 0 Z " fill="#000000" transform="translate(271,78)"/>
<path d="M0 0 C0.66 0 1.32 0 2 0 C2 5.28 2 10.56 2 16 C1.34 16 0.68 16 0 16 C0 10.72 0 5.44 0 0 Z " fill="#000000" transform="translate(222,78)"/>
</svg>
